HIERARCHY
ROOT root
{
	OFFSET	0	13.1	24.9
	CHANNELS 6  Xposition Yposition Zposition Xrotation Yrotation Zrotation
	JOINT spine_1
	{
		OFFSET	0	9.99999	0
		CHANNELS 3  Xrotation Yrotation Zrotation
		JOINT spine_2
		{
			OFFSET	0	112	-10
			CHANNELS 3  Xrotation Yrotation Zrotation
			JOINT spine_3
			{
				OFFSET	0	206.5	19.3
				CHANNELS 3  Xrotation Yrotation Zrotation
				JOINT spine_4
				{
					OFFSET	0	110.4	14.6
					CHANNELS 3  Xrotation Yrotation Zrotation
					JOINT neck_1
					{
						OFFSET	0	71.8	-50.3
						CHANNELS 3  Xrotation Yrotation Zrotation
						JOINT neck_2
						{
							OFFSET	0	86.2	-25.8
							CHANNELS 3  Xrotation Yrotation Zrotation
							JOINT head_ee
							{
								OFFSET	0	179.8	-8.7
								CHANNELS 3  Xrotation Yrotation Zrotation
								End Site
								{
									OFFSET	1	0	0
								}
							}
						}
					}
					JOINT left_clavicle
					{
						OFFSET	-43.2	22.4	-70.8
						CHANNELS 3  Xrotation Yrotation Zrotation
						JOINT left_shoulder
						{
							OFFSET	-93.9	-5.79999	48.7
							CHANNELS 3  Xrotation Yrotation Zrotation
							JOINT left_elbow
							{
								OFFSET	-291.4	-30.8	15.2
								CHANNELS 3  Xrotation Yrotation Zrotation
								JOINT left_lowarm_twist
								{
									OFFSET	-110.7	-3.89999	13.6
									CHANNELS 3  Xrotation Yrotation Zrotation
									JOINT left_hand
									{
										OFFSET	-110.7	-3.89999	13.6
										CHANNELS 3  Xrotation Yrotation Zrotation
										JOINT left_ee
										{
											OFFSET	-80.8	-5.10001	12.1
											CHANNELS 3  Xrotation Yrotation Zrotation
											End Site
											{
												OFFSET	1	0	0
											}
										}
									}
								}
							}
						}
					}
					JOINT right_clavicle
					{
						OFFSET	43.2	22.4	-70.8
						CHANNELS 3  Xrotation Yrotation Zrotation
						JOINT right_shoulder
						{
							OFFSET	93.9	-5.79999	48.7
							CHANNELS 3  Xrotation Yrotation Zrotation
							JOINT right_elbow
							{
								OFFSET	291.4	-30.8	15.2
								CHANNELS 3  Xrotation Yrotation Zrotation
								JOINT right_lowarm_twist
								{
									OFFSET	110.7	-3.89999	13.6
									CHANNELS 3  Xrotation Yrotation Zrotation
									JOINT right_hand
									{
										OFFSET	110.7	-3.89999	13.6
										CHANNELS 3  Xrotation Yrotation Zrotation
										JOINT right_ee
										{
											OFFSET	80.8	-5.10001	12.1
											CHANNELS 3  Xrotation Yrotation Zrotation
											End Site
											{
												OFFSET	1	0	0
											}
										}
									}
								}
							}
						}
					}
				}
			}
		}
	}
	JOINT left_hip
	{
		OFFSET	-82.8	-127.5	0.300001
		CHANNELS 3  Xrotation Yrotation Zrotation
		JOINT left_knee
		{
			OFFSET	-28.2	-396.7	2.2
			CHANNELS 3  Xrotation Yrotation Zrotation
			JOINT left_ankle
			{
				OFFSET	-11.7	-411.3	35.4
				CHANNELS 3  Xrotation Yrotation Zrotation
				JOINT left_toes
				{
					OFFSET	0	-60	-88.6
					CHANNELS 3  Xrotation Yrotation Zrotation
					JOINT left_foot_ee
					{
						OFFSET	-22.5	-16.5	-42.2
						CHANNELS 3  Xrotation Yrotation Zrotation
						End Site
						{
							OFFSET	1	0	0
						}
					}
				}
			}
		}
	}
	JOINT right_hip
	{
		OFFSET	82.8	-127.5	0.300001
		CHANNELS 3  Xrotation Yrotation Zrotation
		JOINT right_knee
		{
			OFFSET	28.2	-396.7	2.2
			CHANNELS 3  Xrotation Yrotation Zrotation
			JOINT right_ankle
			{
				OFFSET	11.7	-411.3	35.4
				CHANNELS 3  Xrotation Yrotation Zrotation
				JOINT right_toes
				{
					OFFSET	0	-60	-88.6
					CHANNELS 3  Xrotation Yrotation Zrotation
					JOINT right_foot_ee
					{
						OFFSET	22.5	-16.5	-42.2
						CHANNELS 3  Xrotation Yrotation Zrotation
						End Site
						{
							OFFSET	1	0	0
						}
					}
				}
			}
		}
	}
}
MOTION
Frames: 9
Frame Time: 0.02
3574.42 741.953 -1474.73 -82.1530171032 77.8976450773 85.9610028205 2.91767 -0.16243 -0.835754 2.91805 -0.108921 -0.844395 2.91955 0.0276758 -0.85094 2.91856 -0.107057 -0.844633 -19.645 -2.53265 -6.74824 -19.5186 -1.41036 -7.30806 -0.0 0.0 -0.0 2.3954 15.4741 5.6299 6.1222 -25.7798 74.275 1.84248 -42.3829 0.714386 25.8535 0.175793 -3.26999 -0.9862 26.7867 5.06779 -0.0 0.0 -0.0 3.68278 2.42119 -6.96169 -30.6478 14.7342 -53.5321 1.7637 41.1394 -0.661911 20.0402 -0.26553 2.53316 5.66881 -20.9812 -48.2666 0.0 0.0 0.0 9.85832 -24.3862 -0.106727 0.184961 -0.00766017 -0.0273501 37.5119 23.6153 -4.88193 -32.2598 0.0 0.0 -0.0 0.0 -0.0 24.3057 9.87607 -0.406623 -7.56217 -0.236693 -1.13559 2.37761 -3.46905 0.347118 7.27683 -0.0 -0.0 0.0 0.0 0.0 
3539.33801765 740.925 -1500.31817529 -78.6960757452 78.2383778718 82.0920377598 3.18803 0.270483 -0.959041 3.18848 0.330958 -0.939889 3.18285 0.473197 -0.876936 3.18192 0.328769 -0.940656 -19.3196 -0.798132 -7.26067 -19.1795 2.24029 -7.08095 -0.0 0.0 -0.0 1.61034 16.5546 4.4574 3.0958 -25.8504 72.5176 1.87612 -42.8992 0.737173 27.1103 0.146591 -3.42788 -0.45445 26.8021 8.02715 -0.0 0.0 -0.0 4.59529 4.08117 -8.68777 -31.7909 15.0212 -55.1266 1.1666 30.0225 -0.312844 19.4929 -0.270118 2.4634 5.47779 -20.1501 -46.345 0.0 0.0 0.0 9.06515 -27.3886 -1.4708 -5.56257 0.188731 0.832494 40.5746 21.5909 -5.12131 -31.7048 0.0 0.0 -0.0 0.0 -0.0 22.5927 9.06575 -1.75385 -9.04108 -0.265344 -1.36072 2.36853 -0.467515 0.347821 8.34408 -0.0 -0.0 0.0 0.0 0.0 
3521.54248517 745.068 -1507.80256455 -74.7304264035 78.8109869329 78.1217883222 3.15108 0.404041 -0.90418 3.15142 0.460756 -0.87664 3.14419 0.592113 -0.793853 3.14361 0.459313 -0.877397 -18.8302 0.0478544 -7.49556 -18.6957 4.05701 -6.96971 -0.0 0.0 -0.0 1.29482 19.4584 4.19144 1.6048 -25.6302 71.9253 1.96306 -44.1947 0.797075 26.9086 0.15151 -3.40259 -0.219933 26.8651 9.36095 -0.0 0.0 -0.0 5.10303 4.58867 -9.68692 -31.6837 14.8918 -55.8892 0.936133 24.8783 -0.206497 19.4161 -0.270709 2.45361 5.42315 -19.9202 -45.8054 0.0 0.0 0.0 9.35911 -26.9022 -1.51303 -11.4321 0.299345 1.726 40.7502 20.7306 -5.11519 -31.7129 0.0 0.0 -0.0 0.0 -0.0 21.0766 7.34789 -1.88907 -11.7909 -0.303131 -1.78093 2.53243 -0.11108 0.372048 8.96043 -0.0 -0.0 0.0 0.0 0.0 
3521.96987928 745.068 -1508.47627293 -71.2213261407 78.5962936886 74.5434145161 3.15108 0.404041 -0.90418 3.15142 0.460756 -0.87664 3.14419 0.592113 -0.793853 3.14361 0.459313 -0.877397 -18.8302 0.0478544 -7.49556 -18.6957 4.05701 -6.96971 -0.0 0.0 -0.0 1.29482 19.4584 4.19144 1.6048 -25.6302 71.9253 1.96306 -44.1947 0.797075 26.9086 0.15151 -3.40259 -0.219933 26.8651 9.36095 -0.0 0.0 -0.0 5.10303 4.58867 -9.68692 -31.6837 14.8918 -55.8892 0.936133 24.8783 -0.206497 19.4161 -0.270709 2.45361 5.42315 -19.9202 -45.8054 0.0 0.0 0.0 9.35911 -26.9022 -1.51303 -11.4321 0.299345 1.726 40.7502 20.7306 -5.11519 -31.7129 0.0 0.0 -0.0 0.0 -0.0 21.0766 7.34789 -1.88907 -11.7909 -0.303131 -1.78093 2.53243 -0.11108 0.372048 8.96043 -0.0 -0.0 0.0 0.0 0.0 
3509.54894554 747.109 -1512.80049637 -59.2210414978 78.060361383 61.9254960992 3.13694 0.507805 -0.865861 3.13718 0.561871 -0.831796 3.12888 0.685177 -0.733567 3.12857 0.560729 -0.832566 -19.708 1.82534 -7.77986 -19.6212 7.51392 -6.49276 -0.0 0.0 -0.0 0.387401 21.9892 3.09933 -0.343457 -26.5696 72.387 2.17634 -47.146 0.949691 27.0929 0.147018 -3.4257 0.07125 26.9069 11.0108 -0.0 0.0 -0.0 5.43641 5.52912 -10.3226 -31.1713 14.9382 -56.2123 0.784677 21.2413 -0.147143 19.8122 -0.267523 2.50411 5.42268 -19.5327 -45.7361 0.0 0.0 0.0 10.6013 -25.9377 -0.129481 -16.3115 0.321321 2.47411 39.3458 20.2993 -4.97453 -31.9184 0.0 0.0 -0.0 0.0 -0.0 19.9977 6.22682 -1.72947 -11.3767 -0.29873 -1.71752 3.11082 0.384819 0.456867 9.33884 -0.0 -0.0 0.0 0.0 0.0 
3495.57993882 745.586 -1520.03264069 -44.7689672772 77.6026444156 46.8403835802 3.09757 0.64253 -1.03071 3.09788 0.706811 -0.987741 3.08549 0.853429 -0.864221 3.08515 0.706238 -0.98815 -21.0907 4.22424 -8.2016 -21.142 12.1603 -5.76989 -0.0 0.0 -0.0 -0.834992 23.0681 1.51959 -1.81733 -26.5269 72.9896 2.22781 -47.8128 0.987625 26.9962 0.149383 -3.41358 0.158709 26.6495 11.4149 -0.0 0.0 -0.0 5.55484 7.09604 -10.4951 -31.9146 15.3569 -55.8752 0.742154 20.1855 -0.132103 20.0475 -0.265465 2.53409 5.43276 -19.819 -45.8768 0.0 0.0 0.0 11.3408 -18.9277 -0.0877062 -21.6465 0.272441 3.29093 36.188 17.7917 -4.61859 -32.0189 0.0 0.0 -0.0 0.0 -0.0 16.5049 0.300794 -0.561715 -11.3834 -0.298805 -1.71856 2.64143 3.83998 0.392771 11.7325 -0.0 -0.0 0.0 0.0 0.0 
3496.34663217 745.586 -1521.34151935 -41.8694122493 76.9070048258 43.8676685913 3.09757 0.64253 -1.03071 3.09788 0.706811 -0.987741 3.08549 0.853429 -0.864221 3.08515 0.706238 -0.98815 -21.0907 4.22424 -8.2016 -21.142 12.1603 -5.76989 -0.0 0.0 -0.0 -0.834992 23.0681 1.51959 -1.81733 -26.5269 72.9896 2.22781 -47.8128 0.987625 26.9962 0.149383 -3.41358 0.158709 26.6495 11.4149 -0.0 0.0 -0.0 5.55484 7.09604 -10.4951 -31.9146 15.3569 -55.8752 0.742154 20.1855 -0.132103 20.0475 -0.265465 2.53409 5.43276 -19.819 -45.8768 0.0 0.0 0.0 11.3408 -18.9277 -0.0877062 -21.6465 0.272441 3.29093 36.188 17.7917 -4.61859 -32.0189 0.0 0.0 -0.0 0.0 -0.0 16.5049 0.300794 -0.561715 -11.3834 -0.298805 -1.71856 2.64143 3.83998 0.392771 11.7325 -0.0 -0.0 0.0 0.0 0.0 
3497.56671734 745.586 -1523.32688719 -37.989401658 75.7803136841 39.8750590624 3.09757 0.64253 -1.03071 3.09788 0.706811 -0.987741 3.08549 0.853429 -0.864221 3.08515 0.706238 -0.98815 -21.0907 4.22424 -8.2016 -21.142 12.1603 -5.76989 -0.0 0.0 -0.0 -0.834992 23.0681 1.51959 -1.81733 -26.5269 72.9896 2.22781 -47.8128 0.987625 26.9962 0.149383 -3.41358 0.158709 26.6495 11.4149 -0.0 0.0 -0.0 5.55484 7.09604 -10.4951 -31.9146 15.3569 -55.8752 0.742154 20.1855 -0.132103 20.0475 -0.265465 2.53409 5.43276 -19.819 -45.8768 0.0 0.0 0.0 11.3408 -18.9277 -0.0877062 -21.6465 0.272441 3.29093 36.188 17.7917 -4.61859 -32.0189 0.0 0.0 -0.0 0.0 -0.0 16.5049 0.300794 -0.561715 -11.3834 -0.298805 -1.71856 2.64143 3.83998 0.392771 11.7325 -0.0 -0.0 0.0 0.0 0.0 
3487.75066834 741.226 -1533.74429107 -33.1369067594 75.7729626466 34.9228885111 2.92247 0.503466 -0.940722 2.92279 0.562303 -0.906782 2.91372 0.700379 -0.804931 2.91326 0.564471 -0.905435 -21.2875 3.34901 -6.02698 -21.3304 9.38824 -4.11901 -0.0 0.0 -0.0 -1.61134 23.4057 0.501028 -2.96441 -28.1004 72.5087 2.36934 -49.5615 1.09395 28.3015 0.11572 -3.57691 0.540762 25.1004 13.0821 -0.0 0.0 -0.0 6.24261 8.62642 -11.8532 -30.7528 15.4358 -57.0321 0.507331 14.1074 -0.0627756 18.3812 -0.277386 2.3216 5.25383 -20.5972 -44.391 0.0 0.0 0.0 12.1018 -22.3275 1.30201 -26.6922 0.156482 4.05632 38.9935 20.8614 -4.95462 -32.3609 0.0 0.0 -0.0 0.0 -0.0 14.9039 2.6547 -0.915856 -13.1324 -0.314235 -1.98646 9.3489 5.35617 1.3684 11.9805 -0.0 -0.0 0.0 0.0 0.0 
